<svg width="360" height="800" viewBox="0 0 360 800" fill="none" xmlns="http://www.w3.org/2000/svg">
<rect width="360" height="800" fill="#FAFCFD"/>
<path fill-rule="evenodd" clip-rule="evenodd" d="M0 0V24H360V0H0Z" fill="#003542"/>
<rect width="118" height="24" transform="translate(242)" fill="#003542"/>
<mask id="mask0_25_10" style="mask-type:alpha" maskUnits="userSpaceOnUse" x="250" y="6" width="16" height="12">
<path fill-rule="evenodd" clip-rule="evenodd" d="M250 6L258 18L266 6H250Z" fill="white"/>
</mask>
<g mask="url(#mask0_25_10)">
<path fill-rule="evenodd" clip-rule="evenodd" d="M258 6C251.4 6 246 11.4 246 18C246 24.6 251.4 30 258 30C264.6 30 270 24.6 270 18C270 11.4 264.6 6 258 6ZM258 27C253 27 249 23 249 18C249 13 253 9 258 9C263 9 267 13 267 18C267 23 263 27 258 27Z" fill="white"/>
<path fill-rule="evenodd" clip-rule="evenodd" d="M258 9C253 9 249 13 249 18C249 23 253 27 258 27C263 27 267 23 267 18C267 13 263 9 258 9ZM258 24C254.7 24 252 21.3 252 18C252 14.7 254.7 12 258 12C261.3 12 264 14.7 264 18C264 21.3 261.3 24 258 24Z" fill="white"/>
<path fill-rule="evenodd" clip-rule="evenodd" d="M258 12C254.7 12 252 14.7 252 18C252 21.3 254.7 24 258 24C261.3 24 264 21.3 264 18C264 14.7 261.3 12 258 12ZM258 21C256.3 21 255 19.7 255 18C255 16.3 256.3 15 258 15C259.7 15 261 16.3 261 18C261 19.7 259.7 21 258 21Z" fill="white"/>
<circle cx="258" cy="18" r="3" fill="white"/>
</g>
<mask id="mask1_25_10" style="mask-type:alpha" maskUnits="userSpaceOnUse" x="276" y="6" width="12" height="12">
<path fill-rule="evenodd" clip-rule="evenodd" d="M288 18V6L276 18H288Z" fill="white"/>
</mask>
<g mask="url(#mask1_25_10)">
<path fill-rule="evenodd" clip-rule="evenodd" d="M285 6V18H288V6H285Z" fill="white"/>
<path fill-rule="evenodd" clip-rule="evenodd" d="M282 6V18H285V6H282Z" fill="white"/>
<path fill-rule="evenodd" clip-rule="evenodd" d="M279 6V18H282V6H279Z" fill="white"/>
<path fill-rule="evenodd" clip-rule="evenodd" d="M276 6V18H279V6H276Z" fill="white"/>
</g>
<mask id="mask2_25_10" style="mask-type:alpha" maskUnits="userSpaceOnUse" x="302" y="5" width="8" height="13">
<path fill-rule="evenodd" clip-rule="evenodd" d="M309 6H308V5H304V6H303C302.4 6 302 6.4 302 7V17C302 17.6 302.4 18 303 18H309C309.6 18 310 17.6 310 17V7C310 6.4 309.6 6 309 6Z" fill="white"/>
</mask>
<g mask="url(#mask2_25_10)">
<path fill-rule="evenodd" clip-rule="evenodd" d="M302 15V18H310V15H302Z" fill="white"/>
<path fill-rule="evenodd" clip-rule="evenodd" d="M302 12V15H310V12H302Z" fill="white"/>
<path fill-rule="evenodd" clip-rule="evenodd" d="M302 9V12H310V9H302Z" fill="white"/>
<path fill-rule="evenodd" clip-rule="evenodd" d="M302 6V9H310V6H302Z" fill="white"/>
<path fill-rule="evenodd" clip-rule="evenodd" d="M304 5V6H308V5H304Z" fill="white"/>
</g>
<g opacity="0.9">
<path d="M323.627 7.70703V17H322.453V9.17334L320.085 10.0366V8.97656L323.443 7.70703H323.627ZM333.136 16.0352V17H327.087V16.1558L330.115 12.7852C330.487 12.3704 330.775 12.0192 330.978 11.7314C331.185 11.4395 331.329 11.1792 331.41 10.9507C331.494 10.7179 331.537 10.481 331.537 10.2397C331.537 9.93506 331.473 9.65999 331.346 9.41455C331.223 9.16488 331.042 8.96598 330.8 8.81787C330.559 8.66976 330.267 8.5957 329.924 8.5957C329.514 8.5957 329.171 8.67611 328.896 8.83691C328.625 8.99349 328.422 9.21354 328.287 9.49707C328.151 9.7806 328.083 10.1064 328.083 10.4746H326.909C326.909 9.9541 327.023 9.47803 327.252 9.04639C327.48 8.61475 327.819 8.27197 328.268 8.01807C328.716 7.75993 329.268 7.63086 329.924 7.63086C330.508 7.63086 331.008 7.73454 331.422 7.94189C331.837 8.14502 332.154 8.43278 332.375 8.80518C332.599 9.17334 332.711 9.60498 332.711 10.1001C332.711 10.3709 332.664 10.646 332.571 10.9253C332.482 11.2004 332.358 11.4754 332.197 11.7505C332.04 12.0256 331.856 12.2964 331.645 12.563C331.437 12.8296 331.215 13.092 330.978 13.3501L328.502 16.0352H333.136ZM334.469 16.3779C334.469 16.179 334.531 16.0119 334.653 15.8765C334.78 15.7368 334.962 15.667 335.199 15.667C335.436 15.667 335.616 15.7368 335.739 15.8765C335.866 16.0119 335.929 16.179 335.929 16.3779C335.929 16.5726 335.866 16.7376 335.739 16.873C335.616 17.0085 335.436 17.0762 335.199 17.0762C334.962 17.0762 334.78 17.0085 334.653 16.873C334.531 16.7376 334.469 16.5726 334.469 16.3779ZM334.476 10.7729C334.476 10.5741 334.537 10.4069 334.66 10.2715C334.787 10.1318 334.969 10.062 335.206 10.062C335.443 10.062 335.622 10.1318 335.745 10.2715C335.872 10.4069 335.936 10.5741 335.936 10.7729C335.936 10.9676 335.872 11.1326 335.745 11.2681C335.622 11.4035 335.443 11.4712 335.206 11.4712C334.969 11.4712 334.787 11.4035 334.66 11.2681C334.537 11.1326 334.476 10.9676 334.476 10.7729ZM339.255 11.8013H340.093C340.504 11.8013 340.842 11.7336 341.109 11.5981C341.38 11.4585 341.581 11.2702 341.712 11.0332C341.847 10.792 341.915 10.5212 341.915 10.2207C341.915 9.86523 341.856 9.56689 341.737 9.32568C341.619 9.08447 341.441 8.90251 341.204 8.77979C340.967 8.65706 340.667 8.5957 340.303 8.5957C339.973 8.5957 339.681 8.6613 339.427 8.79248C339.177 8.91943 338.98 9.1014 338.836 9.33838C338.697 9.57536 338.627 9.85465 338.627 10.1763H337.453C337.453 9.70654 337.571 9.27913 337.808 8.89404C338.045 8.50895 338.377 8.20215 338.805 7.97363C339.236 7.74512 339.736 7.63086 340.303 7.63086C340.861 7.63086 341.35 7.73031 341.769 7.9292C342.188 8.12386 342.514 8.41585 342.747 8.80518C342.979 9.19027 343.096 9.67057 343.096 10.2461C343.096 10.4788 343.041 10.7285 342.931 10.9951C342.825 11.2575 342.658 11.5029 342.429 11.7314C342.205 11.96 341.913 12.1483 341.553 12.2964C341.194 12.4403 340.762 12.5122 340.258 12.5122H339.255V11.8013ZM339.255 12.7661V12.0615H340.258C340.847 12.0615 341.333 12.1313 341.718 12.271C342.103 12.4106 342.406 12.5968 342.626 12.8296C342.85 13.0623 343.007 13.3184 343.096 13.5977C343.189 13.8727 343.235 14.1478 343.235 14.4229C343.235 14.8545 343.161 15.2375 343.013 15.5718C342.869 15.9061 342.664 16.1896 342.397 16.4224C342.135 16.6551 341.826 16.8307 341.471 16.9492C341.115 17.0677 340.728 17.127 340.309 17.127C339.907 17.127 339.528 17.0698 339.173 16.9556C338.822 16.8413 338.511 16.6763 338.24 16.4604C337.969 16.2404 337.757 15.9717 337.605 15.6543C337.453 15.3327 337.376 14.9666 337.376 14.5562H338.551C338.551 14.8778 338.621 15.1592 338.76 15.4004C338.904 15.6416 339.107 15.8299 339.37 15.9653C339.636 16.0965 339.949 16.1621 340.309 16.1621C340.669 16.1621 340.978 16.1007 341.236 15.978C341.498 15.8511 341.699 15.6606 341.839 15.4067C341.983 15.1528 342.055 14.8333 342.055 14.4482C342.055 14.0632 341.974 13.7479 341.813 13.5024C341.653 13.2528 341.424 13.0687 341.128 12.9502C340.836 12.8275 340.491 12.7661 340.093 12.7661H339.255ZM350.656 11.6426V13.0518C350.656 13.8092 350.588 14.4482 350.453 14.9688C350.317 15.4893 350.123 15.9082 349.869 16.2256C349.615 16.543 349.308 16.7736 348.948 16.9175C348.593 17.0571 348.191 17.127 347.742 17.127C347.387 17.127 347.059 17.0825 346.758 16.9937C346.458 16.9048 346.187 16.763 345.946 16.5684C345.709 16.3695 345.506 16.1113 345.336 15.7939C345.167 15.4766 345.038 15.0915 344.949 14.6387C344.86 14.1859 344.816 13.6569 344.816 13.0518V11.6426C344.816 10.8851 344.884 10.2503 345.019 9.73828C345.159 9.22624 345.355 8.81576 345.609 8.50684C345.863 8.19368 346.168 7.9694 346.523 7.83398C346.883 7.69857 347.285 7.63086 347.729 7.63086C348.089 7.63086 348.419 7.67529 348.72 7.76416C349.024 7.8488 349.295 7.98633 349.532 8.17676C349.769 8.36296 349.97 8.61263 350.135 8.92578C350.305 9.2347 350.434 9.61344 350.522 10.062C350.611 10.5106 350.656 11.0374 350.656 11.6426ZM349.475 13.2422V11.4458C349.475 11.0311 349.45 10.6672 349.399 10.354C349.352 10.0366 349.283 9.76579 349.189 9.5415C349.096 9.31722 348.978 9.13525 348.834 8.99561C348.694 8.85596 348.531 8.75439 348.345 8.69092C348.163 8.62321 347.958 8.58936 347.729 8.58936C347.45 8.58936 347.203 8.64225 346.987 8.74805C346.771 8.84961 346.589 9.01253 346.441 9.23682C346.297 9.4611 346.187 9.75521 346.111 10.1191C346.035 10.4831 345.997 10.9253 345.997 11.4458V13.2422C345.997 13.6569 346.02 14.0229 346.066 14.3403C346.117 14.6577 346.191 14.9328 346.289 15.1655C346.386 15.394 346.504 15.5824 346.644 15.7305C346.784 15.8786 346.944 15.9886 347.126 16.0605C347.313 16.1283 347.518 16.1621 347.742 16.1621C348.03 16.1621 348.282 16.1071 348.498 15.9971C348.713 15.887 348.893 15.7157 349.037 15.4829C349.185 15.2459 349.295 14.9434 349.367 14.5752C349.439 14.2028 349.475 13.7585 349.475 13.2422Z" fill="white"/>
</g>
<rect width="360" height="14" transform="translate(0 786)" fill="white"/>
<rect x="148" y="794" width="64" height="2" rx="1" fill="#949494"/>
<path d="M180.285 446.61C255.054 446.61 315.667 386.256 315.667 311.805C315.667 237.354 255.054 177 180.285 177C105.515 177 44.9023 237.354 44.9023 311.805C44.9023 386.256 105.515 446.61 180.285 446.61Z" fill="#23C6EB"/>
<path opacity="0.2" d="M180.284 410.2C157.422 410.2 135.268 402.307 117.596 387.865C99.924 373.424 87.8274 353.328 83.3675 331.001C78.9076 308.674 82.3602 285.499 93.1371 265.423C103.914 245.347 121.348 229.613 142.47 220.901C163.591 212.19 187.092 211.04 208.969 217.649C230.846 224.257 249.745 238.214 262.446 257.141C275.147 276.069 280.865 298.796 278.624 321.45C276.383 344.105 266.323 365.284 250.157 381.381C241.003 390.546 230.113 397.813 218.119 402.76C206.126 407.706 193.266 410.235 180.284 410.2V410.2ZM180.284 219.479C129.157 219.479 87.562 260.896 87.562 311.805C87.562 362.714 129.157 404.132 180.284 404.132C231.41 404.132 273.005 362.714 273.005 311.805C273.005 260.896 231.41 219.479 180.284 219.479Z" fill="black"/>
<path d="M180.284 407.166C233.176 407.166 276.053 364.472 276.053 311.805C276.053 259.139 233.176 216.445 180.284 216.445C127.393 216.445 84.5156 259.139 84.5156 311.805C84.5156 364.472 127.393 407.166 180.284 407.166Z" fill="#3F3D56"/>
<path d="M109.064 273.675C108.337 272.258 107.899 270.713 107.772 269.128C107.646 267.542 107.835 265.948 108.328 264.435C108.821 262.922 109.609 261.521 110.646 260.312C111.683 259.102 112.95 258.108 114.373 257.387C115.796 256.665 117.349 256.23 118.941 256.106C120.533 255.982 122.134 256.171 123.653 256.664C125.172 257.157 126.578 257.942 127.792 258.976C129.005 260.011 130.002 261.273 130.725 262.691L157.782 315.596C158.509 317.013 158.947 318.558 159.074 320.143C159.2 321.728 159.011 323.323 158.518 324.836C158.025 326.348 157.237 327.75 156.2 328.959C155.163 330.168 153.896 331.162 152.473 331.884C151.05 332.606 149.497 333.041 147.905 333.165C146.313 333.289 144.712 333.099 143.193 332.607C141.674 332.114 140.268 331.328 139.054 330.294C137.841 329.26 136.844 327.998 136.121 326.58L109.064 273.675Z" fill="#FF6584"/>
<path opacity="0.2" d="M112.081 279.576L110.832 277.134C117.064 272.312 124.383 268.766 132.493 266.15L133.742 268.592C124.964 270.412 117.496 273.78 112.081 279.576Z" fill="black"/>
<path opacity="0.2" d="M117.909 290.971L116.66 288.529C122.892 283.707 130.211 280.161 138.322 277.545L139.57 279.987C130.792 281.807 123.324 285.175 117.909 290.971Z" fill="black"/>
<path opacity="0.2" d="M123.737 302.366L122.488 299.924C128.721 295.102 136.039 291.556 144.15 288.94L145.399 291.382C136.62 293.202 129.152 296.57 123.737 302.366Z" fill="black"/>
<path opacity="0.2" d="M129.565 313.761L128.316 311.319C134.549 306.497 141.867 302.951 149.978 300.335L151.227 302.777C142.448 304.597 134.98 307.965 129.565 313.761Z" fill="black"/>
<path opacity="0.2" d="M135.391 325.155L134.143 322.713C140.375 317.892 147.693 314.345 155.804 311.729L157.053 314.171C148.275 315.991 140.806 319.36 135.391 325.155Z" fill="black"/>
<path d="M88.7643 293.48C88.0382 292.064 87.5996 290.519 87.4735 288.933C87.3474 287.348 87.5363 285.754 88.0295 284.241C88.5226 282.728 89.3103 281.327 90.3475 280.118C91.3847 278.909 92.6511 277.915 94.0743 277.193C95.4975 276.472 97.0495 276.036 98.6417 275.912C100.234 275.788 101.835 275.978 103.354 276.47C104.872 276.963 106.278 277.749 107.492 278.783C108.705 279.816 109.702 281.078 110.426 282.496L137.483 335.402C138.942 338.261 139.201 341.581 138.203 344.631C137.205 347.681 135.032 350.211 132.162 351.667C129.291 353.122 125.958 353.384 122.894 352.393C119.83 351.403 117.286 349.242 115.821 346.386L88.7643 293.48Z" fill="#FF6584"/>
<path opacity="0.2" d="M91.782 299.381L90.5332 296.94C96.7655 292.118 104.084 288.571 112.195 285.956L113.443 288.397C104.665 290.218 97.197 293.586 91.782 299.381Z" fill="black"/>
<path opacity="0.2" d="M97.6101 310.776L96.3613 308.335C102.594 303.513 109.912 299.966 118.023 297.351L119.272 299.792C110.493 301.613 103.025 304.981 97.6101 310.776Z" fill="black"/>
<path opacity="0.2" d="M103.438 322.171L102.189 319.73C108.422 314.908 115.74 311.361 123.851 308.746L125.1 311.187C116.321 313.008 108.853 316.376 103.438 322.171Z" fill="black"/>
<path opacity="0.2" d="M109.264 333.566L108.016 331.125C114.248 326.303 121.566 322.756 129.677 320.141L130.926 322.582C122.148 324.403 114.679 327.771 109.264 333.566Z" fill="black"/>
<path opacity="0.2" d="M115.093 344.961L113.844 342.52C120.076 337.698 127.395 334.152 135.505 331.536L136.754 333.977C127.976 335.798 120.508 339.166 115.093 344.961Z" fill="black"/>
<path d="M244.276 314.84L244.362 314.84C247.276 314.864 250.13 314.013 252.552 312.398C254.973 310.783 256.849 308.479 257.936 305.786C260.17 300.162 261.297 294.162 261.253 288.113C261.101 262.513 240.184 241.511 214.476 241.156C203.528 241.004 192.863 244.626 184.29 251.408C175.717 258.191 169.763 267.717 167.438 278.371C165.113 289.025 166.559 300.152 171.531 309.866C176.504 319.58 184.697 327.282 194.721 331.668C197.37 332.836 200.312 333.18 203.161 332.654C206.01 332.128 208.632 330.757 210.685 328.721C215.087 324.314 220.322 320.819 226.087 318.437C231.852 316.054 238.034 314.832 244.276 314.84Z" fill="#E6E6E6"/>
<path d="M219.898 300.535C228.553 300.535 235.569 293.549 235.569 284.931C235.569 276.313 228.553 269.326 219.898 269.326C211.243 269.326 204.227 276.313 204.227 284.931C204.227 293.549 211.243 300.535 219.898 300.535Z" fill="#F9A825"/>
<path d="M185.838 283.176C186.858 283.176 187.684 282.353 187.684 281.338C187.684 280.323 186.858 279.5 185.838 279.5C184.819 279.5 183.992 280.323 183.992 281.338C183.992 282.353 184.819 283.176 185.838 283.176Z" fill="#3F3D56"/>
<path d="M124.895 284.91C125.915 284.91 126.741 284.087 126.741 283.072C126.741 282.056 125.915 281.233 124.895 281.233C123.875 281.233 123.049 282.056 123.049 283.072C123.049 284.087 123.875 284.91 124.895 284.91Z" fill="#3F3D56"/>
<path d="M195.678 264.125C196.698 264.125 197.524 263.302 197.524 262.287C197.524 261.271 196.698 260.448 195.678 260.448C194.659 260.448 193.832 261.271 193.832 262.287C193.832 263.302 194.659 264.125 195.678 264.125Z" fill="#3F3D56"/>
<path d="M195.625 317.111C196.645 317.111 197.472 316.288 197.472 315.273C197.472 314.258 196.645 313.435 195.625 313.435C194.606 313.435 193.779 314.258 193.779 315.273C193.779 316.288 194.606 317.111 195.625 317.111Z" fill="#3F3D56"/>
<path d="M232.192 260.328C233.211 260.328 234.038 259.505 234.038 258.49C234.038 257.475 233.211 256.652 232.192 256.652C231.172 256.652 230.346 257.475 230.346 258.49C230.346 259.505 231.172 260.328 232.192 260.328Z" fill="#3F3D56"/>
<path d="M112.916 310.609C113.936 310.609 114.763 309.786 114.763 308.771C114.763 307.756 113.936 306.933 112.916 306.933C111.897 306.933 111.07 307.756 111.07 308.771C111.07 309.786 111.897 310.609 112.916 310.609Z" fill="#3F3D56"/>
<path d="M126.411 337.05C127.43 337.05 128.257 336.227 128.257 335.212C128.257 334.197 127.43 333.374 126.411 333.374C125.391 333.374 124.564 334.197 124.564 335.212C124.564 336.227 125.391 337.05 126.411 337.05Z" fill="#3F3D56"/>
<path d="M211.192 345.615C215.038 345.615 218.157 342.51 218.157 338.679C218.157 334.849 215.038 331.744 211.192 331.744C207.345 331.744 204.227 334.849 204.227 338.679C204.227 342.51 207.345 345.615 211.192 345.615Z" fill="#FF6584"/>
<path opacity="0.2" d="M216.416 339.113C216.416 340.493 215.866 341.816 214.886 342.791C213.907 343.767 212.578 344.315 211.192 344.315C209.807 344.315 208.478 343.767 207.499 342.791C206.519 341.816 205.969 340.493 205.969 339.113" fill="black"/>
<path opacity="0.2" d="M205.969 338.246C205.969 336.866 206.519 335.543 207.499 334.568C208.478 333.592 209.807 333.044 211.192 333.044C212.578 333.044 213.907 333.592 214.886 334.568C215.866 335.543 216.416 336.866 216.416 338.246" fill="black"/>
<path d="M208.58 336.946C208.82 336.946 209.015 336.655 209.015 336.296C209.015 335.937 208.82 335.646 208.58 335.646C208.339 335.646 208.145 335.937 208.145 336.296C208.145 336.655 208.339 336.946 208.58 336.946Z" fill="#FF6584"/>
<path d="M211.191 336.079C211.432 336.079 211.626 335.788 211.626 335.429C211.626 335.069 211.432 334.778 211.191 334.778C210.951 334.778 210.756 335.069 210.756 335.429C210.756 335.788 210.951 336.079 211.191 336.079Z" fill="#FF6584"/>
<path d="M211.191 341.714C211.432 341.714 211.626 341.423 211.626 341.064C211.626 340.705 211.432 340.414 211.191 340.414C210.951 340.414 210.756 340.705 210.756 341.064C210.756 341.423 210.951 341.714 211.191 341.714Z" fill="#FF6584"/>
<path d="M213.804 338.246C214.045 338.246 214.24 337.955 214.24 337.596C214.24 337.237 214.045 336.946 213.804 336.946C213.564 336.946 213.369 337.237 213.369 337.596C213.369 337.955 213.564 338.246 213.804 338.246Z" fill="#FF6584"/>
<path d="M213.369 343.014C213.609 343.014 213.804 342.723 213.804 342.364C213.804 342.005 213.609 341.714 213.369 341.714C213.128 341.714 212.934 342.005 212.934 342.364C212.934 342.723 213.128 343.014 213.369 343.014Z" fill="#FF6584"/>
<path d="M208.144 340.847C208.385 340.847 208.58 340.556 208.58 340.197C208.58 339.837 208.385 339.546 208.144 339.546C207.904 339.546 207.709 339.837 207.709 340.197C207.709 340.556 207.904 340.847 208.144 340.847Z" fill="#FF6584"/>
<path d="M225.121 326.976C228.968 326.976 232.086 323.871 232.086 320.041C232.086 316.211 228.968 313.105 225.121 313.105C221.275 313.105 218.156 316.211 218.156 320.041C218.156 323.871 221.275 326.976 225.121 326.976Z" fill="#FF6584"/>
<path opacity="0.2" d="M230.346 320.475C230.346 321.854 229.796 323.177 228.816 324.153C227.836 325.128 226.508 325.676 225.122 325.676C223.737 325.676 222.408 325.128 221.428 324.153C220.449 323.177 219.898 321.854 219.898 320.475" fill="black"/>
<path opacity="0.2" d="M219.898 319.607C219.898 318.228 220.449 316.905 221.428 315.929C222.408 314.954 223.737 314.406 225.122 314.406C226.508 314.406 227.836 314.954 228.816 315.929C229.796 316.905 230.346 318.228 230.346 319.607" fill="black"/>
<path d="M222.51 318.307C222.75 318.307 222.945 318.016 222.945 317.657C222.945 317.298 222.75 317.007 222.51 317.007C222.269 317.007 222.074 317.298 222.074 317.657C222.074 318.016 222.269 318.307 222.51 318.307Z" fill="#FF6584"/>
<path d="M225.123 317.44C225.363 317.44 225.558 317.149 225.558 316.79C225.558 316.431 225.363 316.14 225.123 316.14C224.882 316.14 224.688 316.431 224.688 316.79C224.688 317.149 224.882 317.44 225.123 317.44Z" fill="#FF6584"/>
<path d="M225.123 323.075C225.363 323.075 225.558 322.784 225.558 322.425C225.558 322.066 225.363 321.775 225.123 321.775C224.882 321.775 224.688 322.066 224.688 322.425C224.688 322.784 224.882 323.075 225.123 323.075Z" fill="#FF6584"/>
<path d="M227.734 319.607C227.975 319.607 228.169 319.316 228.169 318.957C228.169 318.598 227.975 318.307 227.734 318.307C227.494 318.307 227.299 318.598 227.299 318.957C227.299 319.316 227.494 319.607 227.734 319.607Z" fill="#FF6584"/>
<path d="M227.299 324.376C227.539 324.376 227.734 324.084 227.734 323.725C227.734 323.366 227.539 323.075 227.299 323.075C227.058 323.075 226.863 323.366 226.863 323.725C226.863 324.084 227.058 324.376 227.299 324.376Z" fill="#FF6584"/>
<path d="M222.074 322.208C222.314 322.208 222.509 321.917 222.509 321.558C222.509 321.199 222.314 320.908 222.074 320.908C221.834 320.908 221.639 321.199 221.639 321.558C221.639 321.917 221.834 322.208 222.074 322.208Z" fill="#FF6584"/>
<path d="M239.051 336.512C242.898 336.512 246.016 333.407 246.016 329.577C246.016 325.747 242.898 322.642 239.051 322.642C235.204 322.642 232.086 325.747 232.086 329.577C232.086 333.407 235.204 336.512 239.051 336.512Z" fill="#23C6EB"/>
<path opacity="0.2" d="M244.276 330.01C244.276 331.39 243.725 332.713 242.746 333.688C241.766 334.664 240.437 335.212 239.052 335.212C237.666 335.212 236.338 334.664 235.358 333.688C234.378 332.713 233.828 331.39 233.828 330.01" fill="black"/>
<path opacity="0.2" d="M233.828 329.143C233.828 327.764 234.378 326.441 235.358 325.465C236.338 324.49 237.666 323.942 239.052 323.942C240.437 323.942 241.766 324.49 242.746 325.465C243.725 326.441 244.276 327.764 244.276 329.143" fill="black"/>
<path d="M236.439 327.843C236.68 327.843 236.875 327.552 236.875 327.193C236.875 326.834 236.68 326.543 236.439 326.543C236.199 326.543 236.004 326.834 236.004 327.193C236.004 327.552 236.199 327.843 236.439 327.843Z" fill="#23C6EB"/>
<path d="M239.052 326.976C239.293 326.976 239.488 326.685 239.488 326.326C239.488 325.967 239.293 325.676 239.052 325.676C238.812 325.676 238.617 325.967 238.617 326.326C238.617 326.685 238.812 326.976 239.052 326.976Z" fill="#23C6EB"/>
<path d="M239.052 332.611C239.293 332.611 239.488 332.32 239.488 331.961C239.488 331.602 239.293 331.311 239.052 331.311C238.812 331.311 238.617 331.602 238.617 331.961C238.617 332.32 238.812 332.611 239.052 332.611Z" fill="#23C6EB"/>
<path d="M241.664 329.144C241.904 329.144 242.099 328.853 242.099 328.493C242.099 328.134 241.904 327.843 241.664 327.843C241.423 327.843 241.229 328.134 241.229 328.493C241.229 328.853 241.423 329.144 241.664 329.144Z" fill="#23C6EB"/>
<path d="M241.228 333.912C241.469 333.912 241.664 333.621 241.664 333.262C241.664 332.902 241.469 332.611 241.228 332.611C240.988 332.611 240.793 332.902 240.793 333.262C240.793 333.621 240.988 333.912 241.228 333.912Z" fill="#23C6EB"/>
<path d="M236.006 331.744C236.246 331.744 236.441 331.453 236.441 331.094C236.441 330.735 236.246 330.444 236.006 330.444C235.765 330.444 235.57 330.735 235.57 331.094C235.57 331.453 235.765 331.744 236.006 331.744Z" fill="#23C6EB"/>
<path d="M204.227 337.379C208.073 337.379 211.192 334.274 211.192 330.444C211.192 326.614 208.073 323.509 204.227 323.509C200.38 323.509 197.262 326.614 197.262 330.444C197.262 334.274 200.38 337.379 204.227 337.379Z" fill="#23C6EB"/>
<path opacity="0.2" d="M209.451 330.877C209.451 332.257 208.901 333.58 207.921 334.555C206.942 335.531 205.613 336.079 204.228 336.079C202.842 336.079 201.514 335.531 200.534 334.555C199.554 333.58 199.004 332.257 199.004 330.877" fill="black"/>
<path opacity="0.2" d="M199.004 330.011C199.004 328.631 199.554 327.308 200.534 326.333C201.514 325.357 202.842 324.809 204.228 324.809C205.613 324.809 206.942 325.357 207.921 326.333C208.901 327.308 209.451 328.631 209.451 330.011" fill="black"/>
<path d="M201.615 328.71C201.855 328.71 202.05 328.419 202.05 328.06C202.05 327.701 201.855 327.41 201.615 327.41C201.375 327.41 201.18 327.701 201.18 328.06C201.18 328.419 201.375 328.71 201.615 328.71Z" fill="#23C6EB"/>
<path d="M204.226 327.843C204.467 327.843 204.662 327.552 204.662 327.193C204.662 326.834 204.467 326.543 204.226 326.543C203.986 326.543 203.791 326.834 203.791 327.193C203.791 327.552 203.986 327.843 204.226 327.843Z" fill="#23C6EB"/>
<path d="M204.226 333.478C204.467 333.478 204.662 333.187 204.662 332.828C204.662 332.469 204.467 332.178 204.226 332.178C203.986 332.178 203.791 332.469 203.791 332.828C203.791 333.187 203.986 333.478 204.226 333.478Z" fill="#23C6EB"/>
<path d="M206.838 330.01C207.078 330.01 207.273 329.719 207.273 329.36C207.273 329.001 207.078 328.71 206.838 328.71C206.597 328.71 206.402 329.001 206.402 329.36C206.402 329.719 206.597 330.01 206.838 330.01Z" fill="#23C6EB"/>
<path d="M206.404 334.778C206.644 334.778 206.839 334.487 206.839 334.128C206.839 333.769 206.644 333.478 206.404 333.478C206.164 333.478 205.969 333.769 205.969 334.128C205.969 334.487 206.164 334.778 206.404 334.778Z" fill="#23C6EB"/>
<path d="M201.179 332.611C201.42 332.611 201.615 332.32 201.615 331.961C201.615 331.602 201.42 331.311 201.179 331.311C200.939 331.311 200.744 331.602 200.744 331.961C200.744 332.32 200.939 332.611 201.179 332.611Z" fill="#23C6EB"/>
<path d="M219.899 340.414C223.745 340.414 226.864 337.309 226.864 333.478C226.864 329.648 223.745 326.543 219.899 326.543C216.052 326.543 212.934 329.648 212.934 333.478C212.934 337.309 216.052 340.414 219.899 340.414Z" fill="#23C6EB"/>
<path opacity="0.2" d="M225.121 333.912C225.121 334.595 224.986 335.271 224.724 335.902C224.461 336.533 224.076 337.107 223.591 337.59C223.106 338.073 222.53 338.456 221.897 338.717C221.263 338.979 220.584 339.113 219.898 339.113C219.212 339.113 218.532 338.979 217.899 338.717C217.265 338.456 216.689 338.073 216.204 337.59C215.719 337.107 215.334 336.533 215.071 335.902C214.809 335.271 214.674 334.595 214.674 333.912" fill="black"/>
<path opacity="0.2" d="M214.674 333.045C214.674 332.362 214.809 331.685 215.071 331.054C215.334 330.423 215.719 329.85 216.204 329.367C216.689 328.884 217.265 328.501 217.899 328.239C218.532 327.978 219.212 327.843 219.898 327.843C220.584 327.843 221.263 327.978 221.897 328.239C222.53 328.501 223.106 328.884 223.591 329.367C224.076 329.85 224.461 330.423 224.724 331.054C224.986 331.685 225.121 332.362 225.121 333.045" fill="black"/>
<path d="M217.287 331.744C217.527 331.744 217.722 331.453 217.722 331.094C217.722 330.735 217.527 330.444 217.287 330.444C217.046 330.444 216.852 330.735 216.852 331.094C216.852 331.453 217.046 331.744 217.287 331.744Z" fill="#23C6EB"/>
<path d="M219.898 330.878C220.139 330.878 220.334 330.586 220.334 330.227C220.334 329.868 220.139 329.577 219.898 329.577C219.658 329.577 219.463 329.868 219.463 330.227C219.463 330.586 219.658 330.878 219.898 330.878Z" fill="#23C6EB"/>
<path d="M219.898 336.512C220.139 336.512 220.334 336.221 220.334 335.862C220.334 335.503 220.139 335.212 219.898 335.212C219.658 335.212 219.463 335.503 219.463 335.862C219.463 336.221 219.658 336.512 219.898 336.512Z" fill="#23C6EB"/>
<path d="M222.51 333.045C222.75 333.045 222.945 332.753 222.945 332.394C222.945 332.035 222.75 331.744 222.51 331.744C222.269 331.744 222.074 332.035 222.074 332.394C222.074 332.753 222.269 333.045 222.51 333.045Z" fill="#23C6EB"/>
<path d="M222.074 337.813C222.314 337.813 222.509 337.521 222.509 337.162C222.509 336.803 222.314 336.512 222.074 336.512C221.834 336.512 221.639 336.803 221.639 337.162C221.639 337.521 221.834 337.813 222.074 337.813Z" fill="#23C6EB"/>
<path d="M216.851 335.646C217.092 335.646 217.287 335.354 217.287 334.995C217.287 334.636 217.092 334.345 216.851 334.345C216.611 334.345 216.416 334.636 216.416 334.995C216.416 335.354 216.611 335.646 216.851 335.646Z" fill="#23C6EB"/>
<path d="M230.781 347.782C234.628 347.782 237.746 344.677 237.746 340.847C237.746 337.017 234.628 333.912 230.781 333.912C226.935 333.912 223.816 337.017 223.816 340.847C223.816 344.677 226.935 347.782 230.781 347.782Z" fill="#FF6584"/>
<path opacity="0.2" d="M236.004 341.28C236.004 342.66 235.454 343.983 234.474 344.958C233.495 345.934 232.166 346.482 230.78 346.482C229.395 346.482 228.066 345.934 227.087 344.958C226.107 343.983 225.557 342.66 225.557 341.28" fill="black"/>
<path opacity="0.2" d="M225.557 340.413C225.557 339.034 226.107 337.711 227.087 336.735C228.066 335.76 229.395 335.212 230.78 335.212C232.166 335.212 233.495 335.76 234.474 336.735C235.454 337.711 236.004 339.034 236.004 340.413" fill="black"/>
<path d="M228.17 339.113C228.41 339.113 228.605 338.822 228.605 338.463C228.605 338.104 228.41 337.812 228.17 337.812C227.929 337.812 227.734 338.104 227.734 338.463C227.734 338.822 227.929 339.113 228.17 339.113Z" fill="#FF6584"/>
<path d="M230.781 338.246C231.021 338.246 231.216 337.955 231.216 337.596C231.216 337.237 231.021 336.946 230.781 336.946C230.541 336.946 230.346 337.237 230.346 337.596C230.346 337.955 230.541 338.246 230.781 338.246Z" fill="#FF6584"/>
<path d="M230.781 343.881C231.021 343.881 231.216 343.59 231.216 343.231C231.216 342.872 231.021 342.581 230.781 342.581C230.541 342.581 230.346 342.872 230.346 343.231C230.346 343.59 230.541 343.881 230.781 343.881Z" fill="#FF6584"/>
<path d="M233.392 340.414C233.633 340.414 233.828 340.123 233.828 339.763C233.828 339.404 233.633 339.113 233.392 339.113C233.152 339.113 232.957 339.404 232.957 339.763C232.957 340.123 233.152 340.414 233.392 340.414Z" fill="#FF6584"/>
<path d="M232.957 345.181C233.197 345.181 233.392 344.89 233.392 344.531C233.392 344.172 233.197 343.881 232.957 343.881C232.716 343.881 232.521 344.172 232.521 344.531C232.521 344.89 232.716 345.181 232.957 345.181Z" fill="#FF6584"/>
<path d="M227.734 343.014C227.975 343.014 228.169 342.723 228.169 342.364C228.169 342.005 227.975 341.714 227.734 341.714C227.494 341.714 227.299 342.005 227.299 342.364C227.299 342.723 227.494 343.014 227.734 343.014Z" fill="#FF6584"/>
<path d="M141.211 316.244C142.231 316.244 143.058 315.421 143.058 314.406C143.058 313.391 142.231 312.568 141.211 312.568C140.192 312.568 139.365 313.391 139.365 314.406C139.365 315.421 140.192 316.244 141.211 316.244Z" fill="#3F3D56"/>
<path d="M191.393 381.131L147.055 368.888L148.753 362.605L193.091 374.85L191.393 381.131Z" fill="#F9A825"/>
<path d="M184.893 379.032C169.71 381.926 154.113 381.926 138.93 379.032V372.52C154.147 375.031 169.676 375.031 184.893 372.52V379.032Z" fill="#F9A825"/>
<path d="M189.618 359.496C174.435 362.39 158.838 362.39 143.654 359.496V352.984C158.872 355.495 174.4 355.495 189.618 352.984V359.496Z" fill="#F9A825"/>
<path d="M205.512 367.31C190.329 370.204 174.732 370.204 159.549 367.31V360.798C174.766 363.309 190.295 363.309 205.512 360.798V367.31Z" fill="#F9A825"/>
<path d="M209.378 374.69C194.194 377.584 178.597 377.584 163.414 374.69V368.178C178.631 370.69 194.16 370.69 209.378 368.178V374.69Z" fill="#F9A825"/>
<path d="M222.858 384.334L177.511 391.919L176.459 385.494L221.806 377.909L222.858 384.334Z" fill="#F9A825"/>
<path d="M216.084 385.169C203.512 394.193 189.342 400.774 174.319 404.565L171.629 398.648C186.52 394.496 200.629 387.944 213.394 379.252L216.084 385.169Z" fill="#F9A825"/>
<path d="M212.305 365.423C199.733 374.447 185.563 381.028 170.54 384.82L167.85 378.903C182.741 374.751 196.849 368.198 209.614 359.506L212.305 365.423Z" fill="#F9A825"/>
<path d="M229.977 365.817C217.405 374.841 203.235 381.421 188.212 385.213L185.521 379.296C200.413 375.144 214.521 368.592 227.286 359.9L229.977 365.817Z" fill="#F9A825"/>
<path d="M236.537 370.892C223.965 379.916 209.796 386.496 194.773 390.288L192.082 384.371C206.974 380.219 221.082 373.667 233.847 364.975L236.537 370.892Z" fill="#F9A825"/>
<path d="M181.591 358.185H179.414V360.352H181.591V358.185Z" fill="#00BF71"/>
<path d="M188.12 395.896H185.943V398.063H188.12V395.896Z" fill="#00BF71"/>
<path d="M153.296 358.185H151.119V360.352H153.296V358.185Z" fill="#00BF71"/>
<path d="M203.792 385.06H201.615V387.227H203.792V385.06Z" fill="#00BF71"/>
<path d="M205.098 372.489H202.922V374.657H205.098V372.489Z" fill="#00BF71"/>
<path d="M169.193 366.555L166.672 364.852L165.694 366.286L168.216 367.99L169.193 366.555Z" fill="#00BF71"/>
<path d="M194.875 371.323L192.354 369.62L191.376 371.054L193.897 372.758L194.875 371.323Z" fill="#00BF71"/>
<path d="M163.533 379.559L161.012 377.855L160.034 379.29L162.556 380.994L163.533 379.559Z" fill="#00BF71"/>
<path d="M179.496 379.433L181.207 376.922L179.766 375.948L178.055 378.459L179.496 379.433Z" fill="#00BF71"/>
<path d="M191.25 382.467L192.961 379.956L191.52 378.983L189.809 381.493L191.25 382.467Z" fill="#00BF71"/>
<path d="M222.596 372.064L224.307 369.553L222.866 368.579L221.155 371.09L222.596 372.064Z" fill="#00BF71"/>
<path d="M320 446.466H40V447.715H320V446.466Z" fill="#949494"/>
<path d="M83.8613 504.264C81.9573 504.264 80.3413 503.904 79.0133 503.184C77.7013 502.464 76.7013 501.456 76.0133 500.16C75.3253 498.864 74.9813 497.344 74.9813 495.6C74.9813 494.256 75.1813 493.048 75.5813 491.976C75.9973 490.888 76.5893 489.968 77.3573 489.216C78.1413 488.448 79.0853 487.856 80.1893 487.44C81.3093 487.024 82.5733 486.816 83.9813 486.816C84.8453 486.816 85.7093 486.912 86.5733 487.104C87.4373 487.296 88.2693 487.616 89.0693 488.064C89.4053 488.256 89.6293 488.504 89.7413 488.808C89.8693 489.096 89.9013 489.408 89.8373 489.744C89.7893 490.064 89.6613 490.352 89.4533 490.608C89.2613 490.848 89.0053 491.008 88.6853 491.088C88.3813 491.152 88.0293 491.088 87.6293 490.896C87.1013 490.608 86.5413 490.4 85.9493 490.272C85.3573 490.128 84.7093 490.056 84.0053 490.056C82.8693 490.056 81.9173 490.272 81.1493 490.704C80.3813 491.12 79.8053 491.744 79.4213 492.576C79.0533 493.392 78.8693 494.4 78.8693 495.6C78.8693 497.408 79.3013 498.776 80.1653 499.704C81.0453 500.632 82.3413 501.096 84.0533 501.096C84.6293 501.096 85.2213 501.04 85.8293 500.928C86.4373 500.816 87.0373 500.656 87.6293 500.448L86.9333 501.96V497.352H84.7733C84.2933 497.352 83.9253 497.232 83.6693 496.992C83.4133 496.752 83.2853 496.424 83.2853 496.008C83.2853 495.576 83.4133 495.248 83.6693 495.024C83.9253 494.784 84.2933 494.664 84.7733 494.664H88.5413C89.0213 494.664 89.3813 494.792 89.6213 495.048C89.8773 495.304 90.0053 495.672 90.0053 496.152V501.72C90.0053 502.136 89.9253 502.488 89.7653 502.776C89.6053 503.064 89.3333 503.272 88.9493 503.4C88.2293 503.656 87.4213 503.864 86.5253 504.024C85.6293 504.184 84.7413 504.264 83.8613 504.264ZM99.1058 504.264C97.7138 504.264 96.5138 504.016 95.5058 503.52C94.5138 503.008 93.7458 502.296 93.2018 501.384C92.6738 500.456 92.4098 499.368 92.4098 498.12C92.4098 496.904 92.6658 495.84 93.1777 494.928C93.6898 494 94.4018 493.28 95.3138 492.768C96.2418 492.24 97.2898 491.976 98.4578 491.976C99.3058 491.976 100.074 492.12 100.762 492.408C101.45 492.68 102.042 493.08 102.538 493.608C103.034 494.12 103.41 494.752 103.666 495.504C103.922 496.24 104.05 497.064 104.05 497.976C104.05 498.28 103.954 498.512 103.762 498.672C103.57 498.816 103.29 498.888 102.922 498.888H95.3858V497.016H101.434L101.05 497.352C101.05 496.696 100.954 496.152 100.762 495.72C100.57 495.272 100.29 494.936 99.9218 494.712C99.5698 494.488 99.1298 494.376 98.6018 494.376C98.0098 494.376 97.5058 494.512 97.0898 494.784C96.6738 495.056 96.3538 495.448 96.1298 495.96C95.9058 496.472 95.7938 497.088 95.7938 497.808V498C95.7938 499.216 96.0738 500.112 96.6338 500.688C97.2098 501.264 98.0578 501.552 99.1778 501.552C99.5618 501.552 100.002 501.504 100.498 501.408C100.994 501.312 101.458 501.16 101.89 500.952C102.258 500.776 102.586 500.72 102.874 500.784C103.162 500.832 103.386 500.96 103.546 501.168C103.706 501.376 103.794 501.616 103.81 501.888C103.842 502.16 103.786 502.432 103.642 502.704C103.498 502.96 103.258 503.176 102.922 503.352C102.378 503.656 101.762 503.88 101.074 504.024C100.402 504.184 99.7458 504.264 99.1058 504.264ZM111.871 504.264C110.767 504.264 109.839 504.08 109.087 503.712C108.351 503.344 107.799 502.808 107.431 502.104C107.079 501.4 106.903 500.512 106.903 499.44V494.928H105.895C105.447 494.928 105.095 494.808 104.839 494.568C104.599 494.328 104.479 494 104.479 493.584C104.479 493.136 104.599 492.8 104.839 492.576C105.095 492.336 105.447 492.216 105.895 492.216H106.903V490.392C106.903 489.784 107.063 489.328 107.383 489.024C107.703 488.704 108.151 488.544 108.727 488.544C109.319 488.544 109.767 488.704 110.071 489.024C110.375 489.328 110.527 489.784 110.527 490.392V492.216H112.807C113.255 492.216 113.599 492.336 113.839 492.576C114.079 492.8 114.199 493.136 114.199 493.584C114.199 494 114.079 494.328 113.839 494.568C113.599 494.808 113.255 494.928 112.807 494.928H110.527V499.296C110.527 499.968 110.679 500.472 110.983 500.808C111.303 501.144 111.807 501.312 112.495 501.312C112.735 501.312 112.959 501.288 113.167 501.24C113.375 501.192 113.567 501.16 113.743 501.144C113.967 501.128 114.151 501.2 114.295 501.36C114.439 501.504 114.511 501.832 114.511 502.344C114.511 502.728 114.447 503.064 114.319 503.352C114.191 503.64 113.967 503.848 113.647 503.976C113.439 504.056 113.151 504.12 112.783 504.168C112.431 504.232 112.127 504.264 111.871 504.264ZM125.71 508.536C125.294 508.536 124.95 508.424 124.678 508.2C124.406 507.976 124.246 507.68 124.198 507.312C124.15 506.96 124.214 506.584 124.39 506.184L125.998 502.632V504.12L121.75 494.376C121.59 493.96 121.534 493.576 121.582 493.224C121.646 492.856 121.822 492.568 122.11 492.36C122.414 492.136 122.83 492.024 123.358 492.024C123.79 492.024 124.134 492.128 124.39 492.336C124.662 492.528 124.91 492.904 125.134 493.464L127.966 500.664H127.198L130.126 493.44C130.35 492.896 130.598 492.528 130.87 492.336C131.158 492.128 131.542 492.024 132.022 492.024C132.438 492.024 132.766 492.136 133.006 492.36C133.262 492.568 133.414 492.848 133.462 493.2C133.526 493.552 133.462 493.936 133.27 494.352L127.63 507.144C127.39 507.688 127.118 508.056 126.814 508.248C126.526 508.44 126.158 508.536 125.71 508.536ZM140.673 504.264C139.409 504.264 138.305 504.016 137.361 503.52C136.433 503.024 135.713 502.312 135.201 501.384C134.689 500.456 134.433 499.36 134.433 498.096C134.433 497.152 134.577 496.304 134.865 495.552C135.153 494.8 135.569 494.16 136.113 493.632C136.673 493.088 137.337 492.68 138.105 492.408C138.873 492.12 139.729 491.976 140.673 491.976C141.937 491.976 143.033 492.224 143.961 492.72C144.905 493.216 145.633 493.92 146.145 494.832C146.673 495.744 146.937 496.832 146.937 498.096C146.937 499.056 146.785 499.912 146.481 500.664C146.193 501.416 145.777 502.064 145.233 502.608C144.689 503.152 144.025 503.568 143.241 503.856C142.473 504.128 141.617 504.264 140.673 504.264ZM140.673 501.552C141.201 501.552 141.657 501.424 142.041 501.168C142.425 500.912 142.729 500.536 142.953 500.04C143.177 499.528 143.289 498.88 143.289 498.096C143.289 496.928 143.049 496.072 142.569 495.528C142.089 494.968 141.457 494.688 140.673 494.688C140.161 494.688 139.705 494.808 139.305 495.048C138.921 495.288 138.617 495.664 138.393 496.176C138.185 496.672 138.081 497.312 138.081 498.096C138.081 499.264 138.321 500.136 138.801 500.712C139.281 501.272 139.905 501.552 140.673 501.552ZM153.486 504.264C152.494 504.264 151.67 504.08 151.014 503.712C150.358 503.344 149.87 502.792 149.55 502.056C149.246 501.304 149.094 500.376 149.094 499.272V493.848C149.094 493.24 149.246 492.784 149.55 492.48C149.87 492.176 150.318 492.024 150.894 492.024C151.47 492.024 151.918 492.176 152.238 492.48C152.558 492.784 152.718 493.24 152.718 493.848V499.368C152.718 500.072 152.862 500.6 153.15 500.952C153.438 501.288 153.894 501.456 154.518 501.456C155.206 501.456 155.766 501.216 156.198 500.736C156.646 500.24 156.87 499.592 156.87 498.792V493.848C156.87 493.24 157.022 492.784 157.326 492.48C157.646 492.176 158.094 492.024 158.67 492.024C159.262 492.024 159.71 492.176 160.014 492.48C160.334 492.784 160.494 493.24 160.494 493.848V502.368C160.494 503.6 159.91 504.216 158.742 504.216C158.166 504.216 157.726 504.056 157.422 503.736C157.118 503.416 156.966 502.96 156.966 502.368V500.76L157.326 501.696C156.974 502.512 156.47 503.144 155.814 503.592C155.158 504.04 154.382 504.264 153.486 504.264ZM165.17 504.216C164.562 504.216 164.098 504.056 163.778 503.736C163.458 503.416 163.298 502.96 163.298 502.368V493.848C163.298 493.256 163.45 492.808 163.754 492.504C164.074 492.184 164.514 492.024 165.074 492.024C165.65 492.024 166.09 492.184 166.394 492.504C166.698 492.808 166.85 493.256 166.85 493.848V495.096H166.61C166.802 494.136 167.226 493.392 167.882 492.864C168.538 492.336 169.386 492.04 170.426 491.976C170.826 491.944 171.13 492.048 171.338 492.288C171.562 492.512 171.682 492.888 171.698 493.416C171.73 493.912 171.626 494.304 171.386 494.592C171.162 494.88 170.778 495.056 170.234 495.12L169.682 495.168C168.77 495.248 168.09 495.512 167.642 495.96C167.21 496.408 166.994 497.056 166.994 497.904V502.368C166.994 502.96 166.834 503.416 166.514 503.736C166.21 504.056 165.762 504.216 165.17 504.216ZM187.164 504.264C186.22 504.264 185.38 504.032 184.644 503.568C183.924 503.088 183.444 502.456 183.204 501.672L183.468 500.88V502.368C183.468 502.96 183.316 503.416 183.012 503.736C182.708 504.056 182.268 504.216 181.692 504.216C181.116 504.216 180.668 504.056 180.348 503.736C180.044 503.416 179.892 502.96 179.892 502.368V488.712C179.892 488.104 180.044 487.648 180.348 487.344C180.668 487.024 181.124 486.864 181.716 486.864C182.292 486.864 182.732 487.024 183.036 487.344C183.356 487.648 183.516 488.104 183.516 488.712V494.4H183.228C183.484 493.68 183.972 493.096 184.692 492.648C185.412 492.2 186.236 491.976 187.164 491.976C188.204 491.976 189.108 492.224 189.876 492.72C190.644 493.216 191.244 493.92 191.676 494.832C192.108 495.744 192.324 496.832 192.324 498.096C192.324 499.36 192.108 500.456 191.676 501.384C191.244 502.312 190.636 503.024 189.852 503.52C189.084 504.016 188.188 504.264 187.164 504.264ZM186.084 501.552C186.596 501.552 187.044 501.424 187.428 501.168C187.828 500.912 188.132 500.536 188.34 500.04C188.564 499.528 188.676 498.88 188.676 498.096C188.676 496.928 188.436 496.072 187.956 495.528C187.476 494.968 186.852 494.688 186.084 494.688C185.572 494.688 185.116 494.808 184.716 495.048C184.332 495.288 184.028 495.664 183.804 496.176C183.58 496.672 183.468 497.312 183.468 498.096C183.468 499.264 183.708 500.136 184.188 500.712C184.668 501.272 185.3 501.552 186.084 501.552ZM200.66 504.264C199.268 504.264 198.068 504.016 197.06 503.52C196.068 503.008 195.3 502.296 194.756 501.384C194.228 500.456 193.964 499.368 193.964 498.12C193.964 496.904 194.22 495.84 194.732 494.928C195.244 494 195.956 493.28 196.868 492.768C197.796 492.24 198.844 491.976 200.012 491.976C200.86 491.976 201.628 492.12 202.316 492.408C203.004 492.68 203.596 493.08 204.092 493.608C204.588 494.12 204.964 494.752 205.22 495.504C205.476 496.24 205.604 497.064 205.604 497.976C205.604 498.28 205.508 498.512 205.316 498.672C205.124 498.816 204.844 498.888 204.476 498.888H196.94V497.016H202.988L202.604 497.352C202.604 496.696 202.508 496.152 202.316 495.72C202.124 495.272 201.844 494.936 201.476 494.712C201.124 494.488 200.684 494.376 200.156 494.376C199.564 494.376 199.06 494.512 198.644 494.784C198.228 495.056 197.908 495.448 197.684 495.96C197.46 496.472 197.348 497.088 197.348 497.808V498C197.348 499.216 197.628 500.112 198.188 500.688C198.764 501.264 199.612 501.552 200.732 501.552C201.116 501.552 201.556 501.504 202.052 501.408C202.548 501.312 203.012 501.16 203.444 500.952C203.812 500.776 204.14 500.72 204.428 500.784C204.716 500.832 204.94 500.96 205.1 501.168C205.26 501.376 205.348 501.616 205.364 501.888C205.396 502.16 205.34 502.432 205.196 502.704C205.052 502.96 204.812 503.176 204.476 503.352C203.932 503.656 203.316 503.88 202.628 504.024C201.956 504.184 201.3 504.264 200.66 504.264ZM212.224 504.264C211.52 504.264 210.792 504.2 210.04 504.072C209.304 503.944 208.632 503.728 208.024 503.424C207.704 503.264 207.472 503.064 207.328 502.824C207.2 502.568 207.144 502.312 207.16 502.056C207.176 501.8 207.256 501.568 207.4 501.36C207.56 501.152 207.76 501.016 208 500.952C208.256 500.872 208.536 500.896 208.84 501.024C209.496 501.296 210.096 501.488 210.64 501.6C211.184 501.712 211.72 501.768 212.248 501.768C212.936 501.768 213.432 501.664 213.736 501.456C214.056 501.232 214.216 500.944 214.216 500.592C214.216 500.272 214.112 500.032 213.904 499.872C213.696 499.712 213.392 499.6 212.992 499.536L210.472 499.08C209.48 498.904 208.712 498.544 208.168 498C207.64 497.44 207.376 496.728 207.376 495.864C207.376 495.064 207.6 494.376 208.048 493.8C208.496 493.208 209.112 492.76 209.896 492.456C210.696 492.136 211.6 491.976 212.608 491.976C213.328 491.976 213.992 492.04 214.6 492.168C215.208 492.296 215.792 492.504 216.352 492.792C216.64 492.936 216.84 493.128 216.952 493.368C217.08 493.608 217.12 493.856 217.072 494.112C217.04 494.368 216.944 494.6 216.784 494.808C216.624 495.016 216.416 495.152 216.16 495.216C215.92 495.28 215.64 495.248 215.32 495.12C214.808 494.88 214.336 494.712 213.904 494.616C213.472 494.504 213.056 494.448 212.656 494.448C211.936 494.448 211.416 494.568 211.096 494.808C210.776 495.032 210.616 495.32 210.616 495.672C210.616 495.944 210.704 496.176 210.88 496.368C211.072 496.544 211.36 496.664 211.744 496.728L214.264 497.184C215.304 497.36 216.096 497.712 216.64 498.24C217.184 498.752 217.456 499.456 217.456 500.352C217.456 501.568 216.976 502.528 216.016 503.232C215.072 503.92 213.808 504.264 212.224 504.264ZM225.192 504.264C224.088 504.264 223.16 504.08 222.408 503.712C221.672 503.344 221.12 502.808 220.752 502.104C220.4 501.4 220.224 500.512 220.224 499.44V494.928H219.216C218.768 494.928 218.416 494.808 218.16 494.568C217.92 494.328 217.8 494 217.8 493.584C217.8 493.136 217.92 492.8 218.16 492.576C218.416 492.336 218.768 492.216 219.216 492.216H220.224V490.392C220.224 489.784 220.384 489.328 220.704 489.024C221.024 488.704 221.472 488.544 222.048 488.544C222.64 488.544 223.088 488.704 223.392 489.024C223.696 489.328 223.848 489.784 223.848 490.392V492.216H226.128C226.576 492.216 226.92 492.336 227.16 492.576C227.4 492.8 227.52 493.136 227.52 493.584C227.52 494 227.4 494.328 227.16 494.568C226.92 494.808 226.576 494.928 226.128 494.928H223.848V499.296C223.848 499.968 224 500.472 224.304 500.808C224.624 501.144 225.128 501.312 225.816 501.312C226.056 501.312 226.28 501.288 226.488 501.24C226.696 501.192 226.888 501.16 227.064 501.144C227.288 501.128 227.472 501.2 227.616 501.36C227.76 501.504 227.832 501.832 227.832 502.344C227.832 502.728 227.768 503.064 227.64 503.352C227.512 503.64 227.288 503.848 226.968 503.976C226.76 504.056 226.472 504.12 226.104 504.168C225.752 504.232 225.448 504.264 225.192 504.264ZM238.55 504.216C237.958 504.216 237.502 504.056 237.182 503.736C236.878 503.416 236.726 502.96 236.726 502.368V494.928H235.862C235.414 494.928 235.062 494.808 234.806 494.568C234.566 494.328 234.446 494 234.446 493.584C234.446 493.136 234.566 492.8 234.806 492.576C235.062 492.336 235.414 492.216 235.862 492.216H237.782L236.726 493.176V492.432C236.726 490.72 237.15 489.44 237.998 488.592C238.862 487.744 240.126 487.232 241.79 487.056L242.558 486.984C242.974 486.952 243.302 487.016 243.542 487.176C243.798 487.336 243.966 487.544 244.046 487.8C244.126 488.056 244.142 488.32 244.094 488.592C244.046 488.848 243.934 489.08 243.758 489.288C243.598 489.48 243.374 489.584 243.086 489.6L242.75 489.624C241.886 489.688 241.27 489.896 240.902 490.248C240.534 490.584 240.35 491.104 240.35 491.808V492.624L239.894 492.216H242.054C242.518 492.216 242.87 492.336 243.11 492.576C243.35 492.8 243.47 493.136 243.47 493.584C243.47 494 243.35 494.328 243.11 494.568C242.87 494.808 242.518 494.928 242.054 494.928H240.35V502.368C240.35 503.6 239.75 504.216 238.55 504.216ZM250.361 504.264C249.097 504.264 247.993 504.016 247.049 503.52C246.121 503.024 245.401 502.312 244.889 501.384C244.377 500.456 244.121 499.36 244.121 498.096C244.121 497.152 244.265 496.304 244.553 495.552C244.841 494.8 245.257 494.16 245.801 493.632C246.361 493.088 247.025 492.68 247.793 492.408C248.561 492.12 249.417 491.976 250.361 491.976C251.625 491.976 252.721 492.224 253.649 492.72C254.593 493.216 255.321 493.92 255.833 494.832C256.361 495.744 256.625 496.832 256.625 498.096C256.625 499.056 256.473 499.912 256.169 500.664C255.881 501.416 255.465 502.064 254.921 502.608C254.377 503.152 253.713 503.568 252.929 503.856C252.161 504.128 251.305 504.264 250.361 504.264ZM250.361 501.552C250.889 501.552 251.345 501.424 251.729 501.168C252.113 500.912 252.417 500.536 252.641 500.04C252.865 499.528 252.977 498.88 252.977 498.096C252.977 496.928 252.737 496.072 252.257 495.528C251.777 494.968 251.145 494.688 250.361 494.688C249.849 494.688 249.393 494.808 248.993 495.048C248.609 495.288 248.305 495.664 248.081 496.176C247.873 496.672 247.769 497.312 247.769 498.096C247.769 499.264 248.009 500.136 248.489 500.712C248.969 501.272 249.593 501.552 250.361 501.552ZM264.493 504.264C263.23 504.264 262.126 504.016 261.182 503.52C260.254 503.024 259.534 502.312 259.021 501.384C258.51 500.456 258.254 499.36 258.254 498.096C258.254 497.152 258.398 496.304 258.686 495.552C258.974 494.8 259.39 494.16 259.934 493.632C260.494 493.088 261.158 492.68 261.926 492.408C262.694 492.12 263.55 491.976 264.493 491.976C265.758 491.976 266.854 492.224 267.782 492.72C268.726 493.216 269.454 493.92 269.966 494.832C270.494 495.744 270.758 496.832 270.758 498.096C270.758 499.056 270.606 499.912 270.302 500.664C270.014 501.416 269.598 502.064 269.054 502.608C268.51 503.152 267.846 503.568 267.062 503.856C266.294 504.128 265.438 504.264 264.493 504.264ZM264.493 501.552C265.022 501.552 265.478 501.424 265.862 501.168C266.246 500.912 266.55 500.536 266.774 500.04C266.998 499.528 267.11 498.88 267.11 498.096C267.11 496.928 266.87 496.072 266.39 495.528C265.91 494.968 265.278 494.688 264.493 494.688C263.982 494.688 263.526 494.808 263.126 495.048C262.742 495.288 262.438 495.664 262.214 496.176C262.006 496.672 261.902 497.312 261.902 498.096C261.902 499.264 262.142 500.136 262.622 500.712C263.102 501.272 263.726 501.552 264.493 501.552ZM277.546 504.264C276.522 504.264 275.618 504.016 274.834 503.52C274.066 503.024 273.466 502.312 273.034 501.384C272.602 500.456 272.386 499.36 272.386 498.096C272.386 496.832 272.602 495.744 273.034 494.832C273.466 493.92 274.066 493.216 274.834 492.72C275.618 492.224 276.522 491.976 277.546 491.976C278.474 491.976 279.29 492.2 279.994 492.648C280.714 493.096 281.202 493.68 281.458 494.4H281.194V488.712C281.194 488.104 281.346 487.648 281.65 487.344C281.954 487.024 282.402 486.864 282.994 486.864C283.57 486.864 284.018 487.024 284.338 487.344C284.658 487.648 284.818 488.104 284.818 488.712V502.368C284.818 502.96 284.658 503.416 284.338 503.736C284.034 504.056 283.594 504.216 283.018 504.216C282.442 504.216 281.994 504.056 281.674 503.736C281.37 503.416 281.218 502.96 281.218 502.368V500.736L281.482 501.672C281.258 502.456 280.778 503.088 280.042 503.568C279.322 504.032 278.49 504.264 277.546 504.264ZM278.626 501.552C279.154 501.552 279.61 501.424 279.994 501.168C280.378 500.912 280.682 500.536 280.906 500.04C281.13 499.528 281.242 498.88 281.242 498.096C281.242 496.928 281.002 496.072 280.522 495.528C280.042 494.968 279.41 494.688 278.626 494.688C278.114 494.688 277.658 494.808 277.258 495.048C276.874 495.288 276.57 495.664 276.346 496.176C276.138 496.672 276.034 497.312 276.034 498.096C276.034 499.264 276.274 500.136 276.754 500.712C277.234 501.272 277.858 501.552 278.626 501.552ZM81.7445 537.216C81.1365 537.216 80.6725 537.056 80.3525 536.736C80.0325 536.416 79.8725 535.96 79.8725 535.368V526.848C79.8725 526.256 80.0245 525.808 80.3285 525.504C80.6485 525.184 81.0885 525.024 81.6485 525.024C82.2245 525.024 82.6645 525.184 82.9685 525.504C83.2725 525.808 83.4245 526.256 83.4245 526.848V528.096H83.1845C83.3765 527.136 83.8005 526.392 84.4565 525.864C85.1125 525.336 85.9605 525.04 87.0005 524.976C87.4005 524.944 87.7045 525.048 87.9125 525.288C88.1365 525.512 88.2565 525.888 88.2725 526.416C88.3045 526.912 88.2005 527.304 87.9605 527.592C87.7365 527.88 87.3525 528.056 86.8085 528.12L86.2565 528.168C85.3445 528.248 84.6645 528.512 84.2165 528.96C83.7845 529.408 83.5685 530.056 83.5685 530.904V535.368C83.5685 535.96 83.4085 536.416 83.0885 536.736C82.7845 537.056 82.3365 537.216 81.7445 537.216ZM95.6722 537.264C94.2802 537.264 93.0802 537.016 92.0722 536.52C91.0802 536.008 90.3122 535.296 89.7682 534.384C89.2402 533.456 88.9762 532.368 88.9762 531.12C88.9762 529.904 89.2322 528.84 89.7442 527.928C90.2562 527 90.9682 526.28 91.8802 525.768C92.8082 525.24 93.8562 524.976 95.0242 524.976C95.8722 524.976 96.6402 525.12 97.3282 525.408C98.0162 525.68 98.6082 526.08 99.1042 526.608C99.6002 527.12 99.9762 527.752 100.232 528.504C100.488 529.24 100.616 530.064 100.616 530.976C100.616 531.28 100.52 531.512 100.328 531.672C100.136 531.816 99.8562 531.888 99.4882 531.888H91.9522V530.016H98.0002L97.6162 530.352C97.6162 529.696 97.5202 529.152 97.3282 528.72C97.1362 528.272 96.8562 527.936 96.4882 527.712C96.1362 527.488 95.6962 527.376 95.1682 527.376C94.5762 527.376 94.0722 527.512 93.6562 527.784C93.2402 528.056 92.9202 528.448 92.6962 528.96C92.4722 529.472 92.3602 530.088 92.3602 530.808V531C92.3602 532.216 92.6402 533.112 93.2002 533.688C93.7762 534.264 94.6242 534.552 95.7442 534.552C96.1282 534.552 96.5682 534.504 97.0642 534.408C97.5602 534.312 98.0242 534.16 98.4562 533.952C98.8242 533.776 99.1522 533.72 99.4402 533.784C99.7282 533.832 99.9522 533.96 100.112 534.168C100.272 534.376 100.36 534.616 100.376 534.888C100.408 535.16 100.352 535.432 100.208 535.704C100.064 535.96 99.8242 536.176 99.4882 536.352C98.9442 536.656 98.3282 536.88 97.6402 537.024C96.9682 537.184 96.3122 537.264 95.6722 537.264ZM108.46 537.264C107.18 537.264 106.06 537.016 105.1 536.52C104.156 536.008 103.428 535.288 102.916 534.36C102.404 533.432 102.148 532.336 102.148 531.072C102.148 530.128 102.292 529.28 102.58 528.528C102.868 527.776 103.284 527.136 103.828 526.608C104.388 526.08 105.06 525.68 105.844 525.408C106.628 525.12 107.5 524.976 108.46 524.976C108.956 524.976 109.484 525.04 110.044 525.168C110.604 525.28 111.156 525.48 111.7 525.768C112.02 525.912 112.236 526.12 112.348 526.392C112.476 526.648 112.524 526.92 112.492 527.208C112.46 527.48 112.356 527.728 112.18 527.952C112.02 528.16 111.812 528.304 111.556 528.384C111.3 528.448 111.012 528.4 110.692 528.24C110.388 528.064 110.068 527.936 109.732 527.856C109.412 527.776 109.108 527.736 108.82 527.736C108.34 527.736 107.916 527.816 107.548 527.976C107.18 528.12 106.868 528.336 106.612 528.624C106.372 528.896 106.18 529.24 106.036 529.656C105.908 530.072 105.844 530.552 105.844 531.096C105.844 532.152 106.1 532.984 106.612 533.592C107.14 534.184 107.876 534.48 108.82 534.48C109.108 534.48 109.412 534.448 109.732 534.384C110.052 534.304 110.372 534.176 110.692 534C111.012 533.84 111.3 533.8 111.556 533.88C111.812 533.96 112.012 534.112 112.156 534.336C112.316 534.544 112.404 534.792 112.42 535.08C112.452 535.352 112.404 535.624 112.276 535.896C112.164 536.152 111.956 536.352 111.652 536.496C111.108 536.768 110.564 536.96 110.02 537.072C109.476 537.2 108.956 537.264 108.46 537.264ZM119.615 537.264C118.351 537.264 117.247 537.016 116.303 536.52C115.375 536.024 114.655 535.312 114.143 534.384C113.631 533.456 113.375 532.36 113.375 531.096C113.375 530.152 113.519 529.304 113.807 528.552C114.095 527.8 114.511 527.16 115.055 526.632C115.615 526.088 116.279 525.68 117.047 525.408C117.815 525.12 118.671 524.976 119.615 524.976C120.879 524.976 121.975 525.224 122.903 525.72C123.847 526.216 124.575 526.92 125.087 527.832C125.615 528.744 125.879 529.832 125.879 531.096C125.879 532.056 125.727 532.912 125.423 533.664C125.135 534.416 124.719 535.064 124.175 535.608C123.631 536.152 122.967 536.568 122.183 536.856C121.415 537.128 120.559 537.264 119.615 537.264ZM119.615 534.552C120.143 534.552 120.599 534.424 120.983 534.168C121.367 533.912 121.671 533.536 121.895 533.04C122.119 532.528 122.231 531.88 122.231 531.096C122.231 529.928 121.991 529.072 121.511 528.528C121.031 527.968 120.399 527.688 119.615 527.688C119.103 527.688 118.647 527.808 118.247 528.048C117.863 528.288 117.559 528.664 117.335 529.176C117.127 529.672 117.023 530.312 117.023 531.096C117.023 532.264 117.263 533.136 117.743 533.712C118.223 534.272 118.847 534.552 119.615 534.552ZM129.955 537.216C129.363 537.216 128.907 537.056 128.587 536.736C128.283 536.416 128.131 535.96 128.131 535.368V526.848C128.131 526.256 128.283 525.808 128.587 525.504C128.907 525.184 129.347 525.024 129.907 525.024C130.483 525.024 130.923 525.184 131.227 525.504C131.531 525.808 131.683 526.256 131.683 526.848V528.384L131.419 527.424C131.739 526.688 132.235 526.096 132.907 525.648C133.579 525.2 134.371 524.976 135.283 524.976C136.195 524.976 136.955 525.192 137.563 525.624C138.171 526.056 138.603 526.72 138.859 527.616H138.523C138.875 526.8 139.411 526.16 140.131 525.696C140.867 525.216 141.707 524.976 142.651 524.976C143.563 524.976 144.307 525.16 144.883 525.528C145.475 525.88 145.915 526.424 146.203 527.16C146.491 527.88 146.635 528.8 146.635 529.92V535.368C146.635 535.96 146.475 536.416 146.155 536.736C145.851 537.056 145.411 537.216 144.835 537.216C144.243 537.216 143.787 537.056 143.467 536.736C143.163 536.416 143.011 535.96 143.011 535.368V530.04C143.011 529.256 142.883 528.688 142.627 528.336C142.387 527.968 141.971 527.784 141.379 527.784C140.691 527.784 140.155 528.024 139.771 528.504C139.387 528.984 139.195 529.664 139.195 530.544V535.368C139.195 535.96 139.035 536.416 138.715 536.736C138.411 537.056 137.971 537.216 137.395 537.216C136.819 537.216 136.371 537.056 136.051 536.736C135.731 536.416 135.571 535.96 135.571 535.368V530.04C135.571 529.256 135.443 528.688 135.187 528.336C134.947 527.968 134.531 527.784 133.939 527.784C133.251 527.784 132.715 528.024 132.331 528.504C131.947 528.984 131.755 529.664 131.755 530.544V535.368C131.755 536.6 131.155 537.216 129.955 537.216ZM151.284 537.216C150.692 537.216 150.236 537.056 149.916 536.736C149.612 536.416 149.46 535.96 149.46 535.368V526.848C149.46 526.256 149.612 525.808 149.916 525.504C150.236 525.184 150.676 525.024 151.236 525.024C151.812 525.024 152.252 525.184 152.556 525.504C152.86 525.808 153.012 526.256 153.012 526.848V528.384L152.748 527.424C153.068 526.688 153.564 526.096 154.236 525.648C154.908 525.2 155.7 524.976 156.612 524.976C157.524 524.976 158.284 525.192 158.892 525.624C159.5 526.056 159.932 526.72 160.188 527.616H159.852C160.204 526.8 160.74 526.16 161.46 525.696C162.196 525.216 163.036 524.976 163.98 524.976C164.892 524.976 165.636 525.16 166.212 525.528C166.804 525.88 167.244 526.424 167.532 527.16C167.82 527.88 167.964 528.8 167.964 529.92V535.368C167.964 535.96 167.804 536.416 167.484 536.736C167.18 537.056 166.74 537.216 166.164 537.216C165.572 537.216 165.116 537.056 164.796 536.736C164.492 536.416 164.34 535.96 164.34 535.368V530.04C164.34 529.256 164.212 528.688 163.956 528.336C163.716 527.968 163.3 527.784 162.708 527.784C162.02 527.784 161.484 528.024 161.1 528.504C160.716 528.984 160.524 529.664 160.524 530.544V535.368C160.524 535.96 160.364 536.416 160.044 536.736C159.74 537.056 159.3 537.216 158.724 537.216C158.148 537.216 157.7 537.056 157.38 536.736C157.06 536.416 156.9 535.96 156.9 535.368V530.04C156.9 529.256 156.772 528.688 156.516 528.336C156.276 527.968 155.86 527.784 155.268 527.784C154.58 527.784 154.044 528.024 153.66 528.504C153.276 528.984 153.084 529.664 153.084 530.544V535.368C153.084 536.6 152.484 537.216 151.284 537.216ZM176.86 537.264C175.468 537.264 174.268 537.016 173.26 536.52C172.268 536.008 171.5 535.296 170.956 534.384C170.428 533.456 170.164 532.368 170.164 531.12C170.164 529.904 170.42 528.84 170.932 527.928C171.444 527 172.156 526.28 173.068 525.768C173.996 525.24 175.044 524.976 176.212 524.976C177.06 524.976 177.828 525.12 178.516 525.408C179.204 525.68 179.796 526.08 180.292 526.608C180.788 527.12 181.164 527.752 181.42 528.504C181.676 529.24 181.804 530.064 181.804 530.976C181.804 531.28 181.708 531.512 181.516 531.672C181.324 531.816 181.044 531.888 180.676 531.888H173.14V530.016H179.188L178.804 530.352C178.804 529.696 178.708 529.152 178.516 528.72C178.324 528.272 178.044 527.936 177.676 527.712C177.324 527.488 176.884 527.376 176.356 527.376C175.764 527.376 175.26 527.512 174.844 527.784C174.428 528.056 174.108 528.448 173.884 528.96C173.66 529.472 173.548 530.088 173.548 530.808V531C173.548 532.216 173.828 533.112 174.388 533.688C174.964 534.264 175.812 534.552 176.932 534.552C177.316 534.552 177.756 534.504 178.252 534.408C178.748 534.312 179.212 534.16 179.644 533.952C180.012 533.776 180.34 533.72 180.628 533.784C180.916 533.832 181.14 533.96 181.3 534.168C181.46 534.376 181.548 534.616 181.564 534.888C181.596 535.16 181.54 535.432 181.396 535.704C181.252 535.96 181.012 536.176 180.676 536.352C180.132 536.656 179.516 536.88 178.828 537.024C178.156 537.184 177.5 537.264 176.86 537.264ZM185.736 537.216C185.144 537.216 184.688 537.056 184.368 536.736C184.064 536.416 183.912 535.96 183.912 535.368V526.848C183.912 526.256 184.064 525.808 184.368 525.504C184.688 525.184 185.128 525.024 185.688 525.024C186.264 525.024 186.704 525.184 187.008 525.504C187.312 525.808 187.464 526.256 187.464 526.848V528.216L187.2 527.424C187.568 526.64 188.112 526.04 188.832 525.624C189.568 525.192 190.4 524.976 191.328 524.976C192.272 524.976 193.048 525.16 193.656 525.528C194.264 525.88 194.72 526.424 195.024 527.16C195.328 527.88 195.48 528.8 195.48 529.92V535.368C195.48 535.96 195.32 536.416 195 536.736C194.696 537.056 194.248 537.216 193.656 537.216C193.08 537.216 192.632 537.056 192.312 536.736C192.008 536.416 191.856 535.96 191.856 535.368V530.088C191.856 529.272 191.704 528.688 191.4 528.336C191.112 527.968 190.664 527.784 190.056 527.784C189.288 527.784 188.672 528.024 188.208 528.504C187.76 528.984 187.536 529.624 187.536 530.424V535.368C187.536 536.6 186.936 537.216 185.736 537.216ZM202.769 537.264C201.745 537.264 200.841 537.016 200.057 536.52C199.289 536.024 198.689 535.312 198.257 534.384C197.825 533.456 197.609 532.36 197.609 531.096C197.609 529.832 197.825 528.744 198.257 527.832C198.689 526.92 199.289 526.216 200.057 525.72C200.841 525.224 201.745 524.976 202.769 524.976C203.697 524.976 204.513 525.2 205.217 525.648C205.937 526.096 206.425 526.68 206.681 527.4H206.417V521.712C206.417 521.104 206.569 520.648 206.873 520.344C207.177 520.024 207.625 519.864 208.217 519.864C208.793 519.864 209.241 520.024 209.561 520.344C209.881 520.648 210.041 521.104 210.041 521.712V535.368C210.041 535.96 209.881 536.416 209.561 536.736C209.257 537.056 208.817 537.216 208.241 537.216C207.665 537.216 207.217 537.056 206.897 536.736C206.593 536.416 206.441 535.96 206.441 535.368V533.736L206.705 534.672C206.481 535.456 206.001 536.088 205.265 536.568C204.545 537.032 203.713 537.264 202.769 537.264ZM203.849 534.552C204.377 534.552 204.833 534.424 205.217 534.168C205.601 533.912 205.905 533.536 206.129 533.04C206.353 532.528 206.465 531.88 206.465 531.096C206.465 529.928 206.225 529.072 205.745 528.528C205.265 527.968 204.633 527.688 203.849 527.688C203.337 527.688 202.881 527.808 202.481 528.048C202.097 528.288 201.793 528.664 201.569 529.176C201.361 529.672 201.257 530.312 201.257 531.096C201.257 532.264 201.497 533.136 201.977 533.712C202.457 534.272 203.081 534.552 203.849 534.552ZM216.817 537.264C215.953 537.264 215.177 537.096 214.489 536.76C213.801 536.424 213.265 535.968 212.881 535.392C212.497 534.816 212.305 534.168 212.305 533.448C212.305 532.584 212.529 531.904 212.977 531.408C213.425 530.896 214.153 530.536 215.161 530.328C216.169 530.104 217.505 529.992 219.169 529.992H220.441V531.864H219.193C218.377 531.864 217.713 531.912 217.201 532.008C216.705 532.088 216.345 532.232 216.121 532.44C215.913 532.648 215.809 532.936 215.809 533.304C215.809 533.752 215.961 534.12 216.265 534.408C216.585 534.696 217.041 534.84 217.633 534.84C218.097 534.84 218.505 534.736 218.857 534.528C219.225 534.304 219.513 534.008 219.721 533.64C219.929 533.256 220.033 532.824 220.033 532.344V529.584C220.033 528.88 219.873 528.384 219.553 528.096C219.233 527.792 218.689 527.64 217.921 527.64C217.489 527.64 217.017 527.696 216.505 527.808C216.009 527.904 215.457 528.072 214.849 528.312C214.497 528.472 214.185 528.512 213.913 528.432C213.641 528.336 213.433 528.176 213.289 527.952C213.145 527.712 213.073 527.456 213.073 527.184C213.073 526.896 213.153 526.624 213.313 526.368C213.473 526.096 213.737 525.896 214.105 525.768C214.857 525.464 215.561 525.256 216.217 525.144C216.889 525.032 217.505 524.976 218.065 524.976C219.297 524.976 220.305 525.16 221.089 525.528C221.889 525.88 222.489 526.432 222.889 527.184C223.289 527.92 223.489 528.872 223.489 530.04V535.368C223.489 535.96 223.345 536.416 223.057 536.736C222.769 537.056 222.353 537.216 221.809 537.216C221.265 537.216 220.841 537.056 220.537 536.736C220.249 536.416 220.105 535.96 220.105 535.368V534.48L220.273 534.624C220.177 535.168 219.969 535.64 219.649 536.04C219.345 536.424 218.953 536.728 218.473 536.952C217.993 537.16 217.441 537.264 216.817 537.264ZM231.977 537.264C230.873 537.264 229.945 537.08 229.193 536.712C228.457 536.344 227.905 535.808 227.537 535.104C227.185 534.4 227.009 533.512 227.009 532.44V527.928H226.001C225.553 527.928 225.201 527.808 224.945 527.568C224.705 527.328 224.585 527 224.585 526.584C224.585 526.136 224.705 525.8 224.945 525.576C225.201 525.336 225.553 525.216 226.001 525.216H227.009V523.392C227.009 522.784 227.169 522.328 227.489 522.024C227.809 521.704 228.257 521.544 228.833 521.544C229.425 521.544 229.873 521.704 230.177 522.024C230.481 522.328 230.633 522.784 230.633 523.392V525.216H232.913C233.361 525.216 233.705 525.336 233.945 525.576C234.185 525.8 234.305 526.136 234.305 526.584C234.305 527 234.185 527.328 233.945 527.568C233.705 527.808 233.361 527.928 232.913 527.928H230.633V532.296C230.633 532.968 230.785 533.472 231.089 533.808C231.409 534.144 231.913 534.312 232.601 534.312C232.841 534.312 233.065 534.288 233.273 534.24C233.481 534.192 233.673 534.16 233.849 534.144C234.073 534.128 234.257 534.2 234.401 534.36C234.545 534.504 234.617 534.832 234.617 535.344C234.617 535.728 234.553 536.064 234.425 536.352C234.297 536.64 234.073 536.848 233.753 536.976C233.545 537.056 233.257 537.12 232.889 537.168C232.537 537.232 232.233 537.264 231.977 537.264ZM238.095 537.192C237.503 537.192 237.047 537.024 236.727 536.688C236.423 536.336 236.271 535.848 236.271 535.224V527.016C236.271 526.376 236.423 525.888 236.727 525.552C237.047 525.2 237.503 525.024 238.095 525.024C238.671 525.024 239.111 525.2 239.415 525.552C239.735 525.888 239.895 526.376 239.895 527.016V535.224C239.895 535.848 239.743 536.336 239.439 536.688C239.135 537.024 238.687 537.192 238.095 537.192ZM238.095 523.056C237.423 523.056 236.903 522.904 236.535 522.6C236.183 522.28 236.007 521.832 236.007 521.256C236.007 520.664 236.183 520.216 236.535 519.912C236.903 519.592 237.423 519.432 238.095 519.432C238.767 519.432 239.279 519.592 239.631 519.912C239.983 520.216 240.159 520.664 240.159 521.256C240.159 521.832 239.983 522.28 239.631 522.6C239.279 522.904 238.767 523.056 238.095 523.056ZM248.357 537.264C247.093 537.264 245.989 537.016 245.045 536.52C244.117 536.024 243.397 535.312 242.885 534.384C242.373 533.456 242.117 532.36 242.117 531.096C242.117 530.152 242.261 529.304 242.549 528.552C242.837 527.8 243.253 527.16 243.797 526.632C244.357 526.088 245.021 525.68 245.789 525.408C246.557 525.12 247.413 524.976 248.357 524.976C249.621 524.976 250.717 525.224 251.645 525.72C252.589 526.216 253.317 526.92 253.829 527.832C254.357 528.744 254.621 529.832 254.621 531.096C254.621 532.056 254.469 532.912 254.165 533.664C253.877 534.416 253.461 535.064 252.917 535.608C252.373 536.152 251.709 536.568 250.925 536.856C250.157 537.128 249.301 537.264 248.357 537.264ZM248.357 534.552C248.885 534.552 249.341 534.424 249.725 534.168C250.109 533.912 250.413 533.536 250.637 533.04C250.861 532.528 250.973 531.88 250.973 531.096C250.973 529.928 250.733 529.072 250.253 528.528C249.773 527.968 249.141 527.688 248.357 527.688C247.845 527.688 247.389 527.808 246.989 528.048C246.605 528.288 246.301 528.664 246.077 529.176C245.869 529.672 245.765 530.312 245.765 531.096C245.765 532.264 246.005 533.136 246.485 533.712C246.965 534.272 247.589 534.552 248.357 534.552ZM258.65 537.216C258.058 537.216 257.602 537.056 257.282 536.736C256.978 536.416 256.826 535.96 256.826 535.368V526.848C256.826 526.256 256.978 525.808 257.282 525.504C257.602 525.184 258.042 525.024 258.602 525.024C259.178 525.024 259.618 525.184 259.922 525.504C260.226 525.808 260.378 526.256 260.378 526.848V528.216L260.114 527.424C260.482 526.64 261.026 526.04 261.746 525.624C262.482 525.192 263.314 524.976 264.242 524.976C265.186 524.976 265.962 525.16 266.57 525.528C267.178 525.88 267.634 526.424 267.938 527.16C268.242 527.88 268.394 528.8 268.394 529.92V535.368C268.394 535.96 268.234 536.416 267.914 536.736C267.61 537.056 267.162 537.216 266.57 537.216C265.994 537.216 265.546 537.056 265.226 536.736C264.922 536.416 264.77 535.96 264.77 535.368V530.088C264.77 529.272 264.618 528.688 264.314 528.336C264.026 527.968 263.578 527.784 262.97 527.784C262.202 527.784 261.586 528.024 261.122 528.504C260.674 528.984 260.45 529.624 260.45 530.424V535.368C260.45 536.6 259.85 537.216 258.65 537.216ZM275.611 537.264C274.907 537.264 274.179 537.2 273.427 537.072C272.691 536.944 272.019 536.728 271.411 536.424C271.091 536.264 270.859 536.064 270.715 535.824C270.587 535.568 270.531 535.312 270.547 535.056C270.563 534.8 270.643 534.568 270.787 534.36C270.947 534.152 271.147 534.016 271.387 533.952C271.643 533.872 271.923 533.896 272.227 534.024C272.883 534.296 273.483 534.488 274.027 534.6C274.571 534.712 275.107 534.768 275.635 534.768C276.323 534.768 276.819 534.664 277.123 534.456C277.443 534.232 277.603 533.944 277.603 533.592C277.603 533.272 277.499 533.032 277.291 532.872C277.083 532.712 276.779 532.6 276.379 532.536L273.859 532.08C272.867 531.904 272.099 531.544 271.555 531C271.027 530.44 270.763 529.728 270.763 528.864C270.763 528.064 270.987 527.376 271.435 526.8C271.883 526.208 272.499 525.76 273.283 525.456C274.083 525.136 274.987 524.976 275.995 524.976C276.715 524.976 277.379 525.04 277.987 525.168C278.595 525.296 279.179 525.504 279.739 525.792C280.027 525.936 280.227 526.128 280.339 526.368C280.467 526.608 280.507 526.856 280.459 527.112C280.427 527.368 280.331 527.6 280.171 527.808C280.011 528.016 279.803 528.152 279.547 528.216C279.307 528.28 279.027 528.248 278.707 528.12C278.195 527.88 277.723 527.712 277.291 527.616C276.859 527.504 276.443 527.448 276.043 527.448C275.323 527.448 274.803 527.568 274.483 527.808C274.163 528.032 274.003 528.32 274.003 528.672C274.003 528.944 274.091 529.176 274.267 529.368C274.459 529.544 274.747 529.664 275.131 529.728L277.651 530.184C278.691 530.36 279.483 530.712 280.027 531.24C280.571 531.752 280.843 532.456 280.843 533.352C280.843 534.568 280.363 535.528 279.403 536.232C278.459 536.92 277.195 537.264 275.611 537.264Z" fill="#191C1D"/>
<circle cx="160" cy="616" r="6" fill="#949494"/>
<circle cx="180" cy="616" r="6" fill="#23C6EB"/>
<circle cx="200" cy="616" r="6" fill="#949494"/>
<rect x="16" y="722" width="328" height="48" rx="24" fill="#23C6EB"/>
<path d="M160.072 753.16C159.685 753.16 159.385 753.053 159.172 752.84C158.972 752.627 158.872 752.32 158.872 751.92V740.02C158.872 739.607 158.972 739.293 159.172 739.08C159.385 738.853 159.659 738.74 159.992 738.74C160.299 738.74 160.525 738.8 160.672 738.92C160.832 739.027 161.019 739.213 161.232 739.48L168.892 749.42H168.372V739.96C168.372 739.573 168.472 739.273 168.672 739.06C168.885 738.847 169.185 738.74 169.572 738.74C169.959 738.74 170.252 738.847 170.452 739.06C170.652 739.273 170.752 739.573 170.752 739.96V751.96C170.752 752.333 170.659 752.627 170.472 752.84C170.285 753.053 170.032 753.16 169.712 753.16C169.405 753.16 169.159 753.1 168.972 752.98C168.799 752.86 168.605 752.667 168.392 752.4L160.752 742.46H161.252V751.92C161.252 752.32 161.152 752.627 160.952 752.84C160.752 753.053 160.459 753.16 160.072 753.16ZM178.413 753.2C177.306 753.2 176.353 752.993 175.553 752.58C174.753 752.167 174.133 751.58 173.693 750.82C173.266 750.06 173.053 749.16 173.053 748.12C173.053 747.107 173.26 746.22 173.673 745.46C174.1 744.7 174.68 744.107 175.413 743.68C176.16 743.24 177.006 743.02 177.953 743.02C178.646 743.02 179.266 743.133 179.813 743.36C180.373 743.587 180.846 743.913 181.233 744.34C181.633 744.767 181.933 745.287 182.133 745.9C182.346 746.5 182.453 747.18 182.453 747.94C182.453 748.18 182.366 748.367 182.193 748.5C182.033 748.62 181.8 748.68 181.493 748.68H175.073V747.24H180.693L180.373 747.54C180.373 746.927 180.28 746.413 180.093 746C179.92 745.587 179.66 745.273 179.313 745.06C178.98 744.833 178.56 744.72 178.053 744.72C177.493 744.72 177.013 744.853 176.613 745.12C176.226 745.373 175.926 745.74 175.713 746.22C175.513 746.687 175.413 747.247 175.413 747.9V748.04C175.413 749.133 175.666 749.953 176.173 750.5C176.693 751.033 177.453 751.3 178.453 751.3C178.8 751.3 179.186 751.26 179.613 751.18C180.053 751.087 180.466 750.933 180.853 750.72C181.133 750.56 181.38 750.493 181.593 750.52C181.806 750.533 181.973 750.607 182.093 750.74C182.226 750.873 182.306 751.04 182.333 751.24C182.36 751.427 182.32 751.62 182.213 751.82C182.12 752.02 181.953 752.193 181.713 752.34C181.246 752.633 180.706 752.853 180.093 753C179.493 753.133 178.933 753.2 178.413 753.2ZM185.054 753.1C184.761 753.1 184.514 753.02 184.314 752.86C184.128 752.687 184.028 752.467 184.014 752.2C184.014 751.933 184.128 751.653 184.354 751.36L187.594 747.36V748.54L184.554 744.8C184.314 744.507 184.201 744.227 184.214 743.96C184.228 743.693 184.328 743.48 184.514 743.32C184.714 743.147 184.961 743.06 185.254 743.06C185.561 743.06 185.814 743.113 186.014 743.22C186.228 743.327 186.421 743.493 186.594 743.72L188.994 746.8H188.114L190.534 743.72C190.721 743.493 190.914 743.327 191.114 743.22C191.314 743.113 191.561 743.06 191.854 743.06C192.161 743.06 192.408 743.147 192.594 743.32C192.781 743.493 192.874 743.713 192.874 743.98C192.888 744.247 192.774 744.527 192.534 744.82L189.514 748.52V747.4L192.754 751.36C192.994 751.64 193.108 751.913 193.094 752.18C193.081 752.447 192.974 752.667 192.774 752.84C192.588 753.013 192.341 753.1 192.034 753.1C191.741 753.1 191.494 753.047 191.294 752.94C191.094 752.833 190.901 752.667 190.714 752.44L188.114 749.16H188.954L186.374 752.44C186.201 752.653 186.014 752.82 185.814 752.94C185.614 753.047 185.361 753.1 185.054 753.1ZM199.772 753.2C198.906 753.2 198.179 753.053 197.592 752.76C197.019 752.467 196.592 752.04 196.312 751.48C196.032 750.907 195.892 750.2 195.892 749.36V745.1H194.852C194.532 745.1 194.286 745.02 194.112 744.86C193.939 744.687 193.852 744.453 193.852 744.16C193.852 743.853 193.939 743.62 194.112 743.46C194.286 743.3 194.532 743.22 194.852 743.22H195.892V741.4C195.892 740.987 195.999 740.673 196.212 740.46C196.439 740.247 196.752 740.14 197.152 740.14C197.552 740.14 197.859 740.247 198.072 740.46C198.286 740.673 198.392 740.987 198.392 741.4V743.22H200.512C200.832 743.22 201.079 743.3 201.252 743.46C201.426 743.62 201.512 743.853 201.512 744.16C201.512 744.453 201.426 744.687 201.252 744.86C201.079 745.02 200.832 745.1 200.512 745.1H198.392V749.22C198.392 749.86 198.532 750.34 198.812 750.66C199.092 750.98 199.546 751.14 200.172 751.14C200.399 751.14 200.599 751.12 200.772 751.08C200.946 751.04 201.099 751.013 201.232 751C201.392 750.987 201.526 751.04 201.632 751.16C201.739 751.267 201.792 751.493 201.792 751.84C201.792 752.107 201.746 752.347 201.652 752.56C201.572 752.76 201.419 752.9 201.192 752.98C201.019 753.033 200.792 753.08 200.512 753.12C200.232 753.173 199.986 753.2 199.772 753.2Z" fill="#003542"/>
</svg>
